<svg xmlns="http://www.w3.org/2000/svg" viewBox="0 0 4680 3120"><defs><clipPath id="a"><circle cx="3691.67" cy="999.69" r="430.36" fill="#d0daed"/></clipPath></defs><g data-name="8"><rect width="4680" height="3120" fill="#fff" data-name="8" opacity="0"/><path fill="#e0e7f3" d="M3987.09,2698.46l-3374.31-4.23S299.64,2455.8,499,1953.92c81.53-205.29,212.3-227,209.69-472.6-2.09-197-112.8-265.71-23-550.13C764.76,680.51,1096,500.69,1381.81,559c316.68,64.62,417,348.37,641,50.82C2235.2,327.67,3177.24,438.46,3688.66,1049S4418.91,2497.9,3987.09,2698.46Z"/><rect width="3784.74" height="89.75" x="453.1" y="2670.25" fill="#d0daed"/><circle cx="1214.66" cy="1193.28" r="761.56" fill="#d0daed"/><path fill="#a5bfdf" d="M516.35,1770.21a56.71,56.71,0,1,1,56.71-56.71A56.77,56.77,0,0,1,516.35,1770.21Zm0-108.79a52.08,52.08,0,1,0,52.08,52.08A52.14,52.14,0,0,0,516.35,1661.42Z"/><path fill="#a5bfdf" d="M3566,2621.52a56.71,56.71,0,1,1,56.71-56.71A56.77,56.77,0,0,1,3566,2621.52Zm0-108.79a52.08,52.08,0,1,0,52.08,52.08A52.14,52.14,0,0,0,3566,2512.73Z"/><circle cx="3691.67" cy="999.69" r="430.36" fill="#d0daed"/><g clip-path="url(#a)"><path fill="#a5bfdf" d="M3466,1173.36s-143.31-68.1-136,262.9h101C3433.41,1436.26,3466,1173.36,3466,1173.36Z"/><ellipse cx="3431.72" cy="1198.36" fill="#1a124c" rx="59.64" ry="78.46"/><path fill="#34509c" d="M3690.71,983.89a360.33,360.33,0,0,1,85.08,9.92c119.18,29.12,201.68,138.82,201.68,262.35v180.1H3397.82V1259.7c0-96.15,50.07-186,132.88-233.75C3573,1001.54,3626,983.75,3690.71,983.89Z"/><path fill="#f2f2f2" d="M3643.54,1138.15a237.78,237.78,0,0,1,56.07,6.53c78.54,19.2,132.91,91.49,132.91,172.9v118.68h-382V1319.91c0-63.36,33-122.54,87.57-154C3566,1149.78,3600.92,1138.06,3643.54,1138.15Z"/><rect width="97.33" height="42.09" x="3422.21" y="795.36" fill="#34509c" rx="14.88" transform="rotate(180 3470.875 816.405)"/><path fill="#34509c" d="M3431.72,867.26h0a33.56,33.56,0,0,0,33.46-33.46V799a33.56,33.56,0,0,0-33.46-33.46h0A33.56,33.56,0,0,0,3398.26,799V833.8A33.56,33.56,0,0,0,3431.72,867.26Z"/><rect width="238.3" height="137.89" x="3568.49" y="906.06" fill="#1a124c" rx="48.75" transform="rotate(180 3687.645 975.01)"/><rect width="474.5" height="271.61" x="3445.08" y="694.27" fill="#34509c" rx="96.03"/><path fill="#34509c" d="M3680.81,569V648.7a21.1,21.1,0,0,0,21,21h0a21.11,21.11,0,0,0,21.05-21V569a21.11,21.11,0,0,0-21.05-21h0A21.1,21.1,0,0,0,3680.81,569Z"/><rect width="101.7" height="66.92" x="3651" y="523.98" fill="#1a124c" rx="23.66"/><path fill="#34509c" d="M3614,642.88h164.69a0,0,0,0,1,0,0v15.74a38,38,0,0,1-38,38h-88.7a38,38,0,0,1-38-38V642.88a0,0,0,0,1,0,0Z" transform="rotate(180 3696.295 669.745)"/><ellipse cx="3648.34" cy="1150.07" fill="#e9e6f2" rx="69.33" ry="67.76" transform="rotate(-75.17 3648.245 1150.1)"/><path fill="#604385" d="M3776.4,524.14a2.15,2.15,0,0,1-1.25-.39,2.17,2.17,0,0,1-.52-3L3798,487.62a2.16,2.16,0,1,1,3.53,2.49l-23.34,33.12A2.15,2.15,0,0,1,3776.4,524.14Z"/><path fill="#604385" d="M3639.05,523.49a2.18,2.18,0,0,1-1.7-.82l-25.1-31.81a2.16,2.16,0,1,1,3.4-2.68l25.1,31.8a2.16,2.16,0,0,1-.36,3A2.11,2.11,0,0,1,3639.05,523.49Z"/><path fill="#604385" d="M3703.68,497.29h0a2.17,2.17,0,0,1-2.16-2.17l0-40.55a2.15,2.15,0,0,1,2.16-2.16h0a2.16,2.16,0,0,1,2.16,2.16l0,40.56A2.17,2.17,0,0,1,3703.68,497.29Z"/><path fill="#d0daed" d="M3550,935.57h229.45a78.24,78.24,0,0,0,78-78V792.93a78.23,78.23,0,0,0-78-78H3550a78.24,78.24,0,0,0-78,78v64.62A78.25,78.25,0,0,0,3550,935.57Z"/><rect width="337.65" height="134.71" x="3487.32" y="773.82" fill="#fafafa" rx="47.63"/><circle cx="3741.86" cy="833.82" r="18.96" fill="#34509c"/><circle cx="3542.24" cy="833.82" r="18.96" fill="#34509c"/><path fill="#34509c" d="M3663.77,848.09h-49.43A7.66,7.66,0,0,0,3607,858c3.58,11.36,12.25,28.41,31.95,28.41s28.48-17,32.18-28.35A7.67,7.67,0,0,0,3663.77,848.09Z"/><rect width="97.33" height="42.09" x="3878.23" y="799.08" fill="#34509c" rx="14.88"/><path fill="#34509c" d="M3966.05,871h0a33.55,33.55,0,0,1-33.45-33.46V802.74a33.55,33.55,0,0,1,33.45-33.46h0a33.56,33.56,0,0,1,33.46,33.46v34.78A33.56,33.56,0,0,1,3966.05,871Z"/><ellipse cx="3944.66" cy="1198.36" fill="#1a124c" rx="59.64" ry="78.46"/><path fill="#a5bfdf" d="M3987.29,1176.79s66.95,46.54,64.51,259.47h-87s6.09-172.32-45.18-208.23C3890.46,1198.43,3923.17,1123.3,3987.29,1176.79Z"/></g><path fill="#a5bfdf" d="M1541.3,2212.21c-73.07,67-96.74,42.74-27.67-114.8-45.16,44-128.87-68.69-169.75-244.9-31.57,80.17-80.5,215.16-80.5,215.16s-14.05-241.53-60.5-338.94c-49.76,241.5-60,400.48-60,400.48s-120.32-310.84-205.49-432.53c6.53,308.23,191,574.32,191,574.32s-267.33-406.36-348.17-483.44c25.6,236.87,325.66,518.06,325.66,518.06s-295.74-260-417.29-318.93C814.3,2194.52,1087.31,2322,1087.31,2322s-277.42-88.08-367.43-109.33C862.49,2336.48,1112,2369.47,1112,2369.47s-264.8-1.9-354,22.53c189.07,66.87,365.11,12.31,365.11,12.31s-217.82,76.44-280.51,119.85c159.79,55.24,304.38-86.14,304.38-86.14s-143.91,108.24-186.24,162.54C1124.26,2572.28,1444.55,2369.84,1541.3,2212.21Z"/><path fill="#a5bfdf" d="M2869.23,1984c39.73,45,55.52,31.87,23.93-67.35,24.4,29.36,100.3,139.93,136.09,36.46,13.92,50.26,68.43-166.54,102.57-222.23,14.63,148.53-17.48,228.44-17.48,228.44s92.15-179.48,151.14-247.33c-23.49,185.13-151.42,333.6-151.42,333.6S3300.77,1818,3354.32,1776.7c-30.44,141-228.9,291.19-228.9,291.19s194.52-137.73,271.42-165.51c-88.86,117.13-261.29,176.54-261.29,176.54s172.59-35.42,228.12-42.51c-93.71,65.5-246,69.52-246,69.52s159.52,15.66,211.64,36c-118.06,28.26-220.57-15.75-220.57-15.75S3235,2186,3270,2216.14c-99.69,23.12-177.76-71.16-177.76-71.16s79.76,74.28,101.8,109.66C3097.43,2227.25,2917.47,2085.06,2869.23,1984Z"/><path fill="#f2f2f2" d="M2049.27,912c-46.79,66.11-174.53,159.8-174.53,159.8s104.65-109,132.67-246.69c-28.48,42.92-149.72,234.57-149.72,234.57s81.55-206.83,92.08-335.39c-53.31,84-125.28,320.52-125.28,320.52s68.2-252.34,5.2-386c-38.1,232.21-30.63,382-30.63,382s-26.42-357-103.27-456.56C1692,943.55,1769,1036.19,1769,1036.19s-201.76-349.25-290.72-431.74c58.31,245,251.43,425.63,251.43,425.63s-283.43-278.39-361.25-326c61.24,184.7,349.25,357.52,349.25,357.52S1436.82,905,1329.62,878.85c136.17,144.28,376.1,199,376.1,199s-236.67-22.53-312.19-24c135.19,74.3,340.1,57.65,340.1,57.65s-211.74,44.1-278.71,79c162.47,20.82,293.62-53.07,293.62-53.07s-160.74,98.55-203.32,144c137.09,16.58,228.18-121.2,228.18-121.2s-96.25,111.2-120.69,161.85c122-49.29,164.78-140,177.7-177.68,69.72,90.28,178.58,201.89,16-20C1882.07,1113.47,1994.6,1067.58,2049.27,912Z"/><path fill="#d0daed" d="M3150.66,2484.13c70.58-46.85,304.3-204.51,365.18-277.76-196.79,58.28-342.39,210.41-375,246.61,39.83-45.47,240.9-276.31,277.09-343.37-168.09,66-313.76,341.65-313.76,341.65s131-268.21,149.84-368.87C3127.2,2215.85,3088.54,2441,3088.54,2441s9-220.47,6.54-290.54c-62.06,129-36.32,318.1-36.32,318.1s-51.52-194-87.2-254.33c-11.13,151.62,64,269.45,64,269.45s-99.42-144-143.69-181.18c-5.39,81.28,46.08,142.19,84.31,175.8-35.77-26.12-87.25-61.9-116.58-74.15,51.82,110.64,138.08,145.68,173.61,155.75C2953,2629,2855,2735.52,3052.51,2573.7c6.62,18.06,24.48,57.62,64.28,96.55h51c-36.41-38-65.11-72.95-65.11-72.95s46.81,40.28,116,72.95h53.49c-68.26-38.58-159.09-89.37-159.09-89.37s195.78,65.18,315.46,68.47c-80.56-45.18-303.35-100-303.35-100s237.29,50.51,358-14.6c-217.11-23.63-355.58-9.16-355.58-9.16s329.54-42.45,417.93-118.68C3300.38,2417.65,3191.23,2461.63,3150.66,2484.13Z"/><path fill="#f2f2f2" d="M1115.06,2537.6s27.94-111.12-5.37-212.32c-2.62,39-10.41,210.75-10.41,210.75s-24-166.85-65.45-255.47c-3.52,75.38,38,258.16,38,258.16s-50-191.8-141.68-256.12c62.2,167.23,123.45,263.07,123.45,263.07S902,2320.51,814,2283.85c97.52,175.08,169.59,238.7,200.88,260.11-60.05-34.41-260.74-147.42-336.53-165.08,114.59,122.41,279,173.08,317.35,183.61-47.79-12.45-290-74.83-352.21-76.72,109.76,98.61,364.38,104.14,364.38,104.14s-243.85,2.47-324.27,25.56c143.91,43.81,322.48-10.34,322.48-10.34s-76.46,34.49-141,65.12h72.78c57.54-24.92,99.28-53.46,99.28-53.46s-26.56,23.49-58.1,53.46h45.79c21.18-24.15,31.86-42,31.86-42s-9.65,17.59-22.31,42h87.44c36.34-97.06,62.86-223.11,48.17-303.49C1164,2427.89,1115.06,2537.6,1115.06,2537.6Z"/><path fill="#34509c" d="M1976,2683.07l726.7-7a140.55,140.55,0,0,0,139.19-141.91L2825.32,817.08a140.56,140.56,0,0,0-141.91-139.19l-726.7,7a140.55,140.55,0,0,0-139.2,141.9l16.54,1717.08A140.56,140.56,0,0,0,1976,2683.07Z"/><circle cx="2326.97" cy="2540.57" r="83.04" fill="#1a124c"/><path fill="#f2f2f2" d="M1959.11,2415.18l751.89-7.24c43.12-.42,77.76-33.85,77.37-74.68L2773.61,801.45c-.39-40.83-35.67-73.59-78.79-73.17l-751.89,7.24c-43.12.42-77.76,33.85-77.36,74.68L1880.32,2342C1880.71,2382.84,1916,2415.59,1959.11,2415.18Z"/><circle cx="2340.98" cy="1328.17" r="400.75" fill="#a5bfdf" transform="rotate(-45 2340.975 1328.167)"/><circle cx="2312.6" cy="1260.24" r="408" fill="#e0e7f3"/><rect width="93.52" height="40.44" x="2467.01" y="1221.8" fill="#34509c" rx="14.3"/><path fill="#34509c" d="M2551.39,1290.88h0a32.24,32.24,0,0,1-32.15-32.14v-33.42a32.24,32.24,0,0,1,32.15-32.15h0a32.24,32.24,0,0,1,32.15,32.15v33.42A32.24,32.24,0,0,1,2551.39,1290.88Z"/><rect width="93.52" height="40.44" x="2064.11" y="1225.38" fill="#34509c" rx="14.3" transform="rotate(180 2110.865 1245.6)"/><path fill="#34509c" d="M2073.25,1294.46h0a32.24,32.24,0,0,0,32.14-32.15v-33.42a32.24,32.24,0,0,0-32.14-32.15h0a32.24,32.24,0,0,0-32.15,32.15v33.42A32.24,32.24,0,0,0,2073.25,1294.46Z"/><rect width="228.96" height="132.49" x="2191.01" y="1328.17" fill="#1a124c" rx="46.84"/><rect width="455.92" height="260.97" x="2082.63" y="1124.67" fill="#518e7b" rx="92.27"/><path fill="#34509c" d="M2327.49,1004.28v76.61a20.28,20.28,0,0,1-20.22,20.22h0a20.28,20.28,0,0,1-20.22-20.22v-76.61a20.28,20.28,0,0,1,20.22-20.22h0A20.28,20.28,0,0,1,2327.49,1004.28Z"/><rect width="64.3" height="97.72" x="2275.12" y="944.34" fill="#f1a953" rx="22.73" transform="rotate(-90 2307.265 993.205)"/><path fill="#518e7b" d="M2312.6,1668.24a406.29,406.29,0,0,0,262.56-95.79c-26.14-46.4-104.23-152.81-270.86-152.45-160.77.35-235.75,97.35-262.9,145A406.4,406.4,0,0,0,2312.6,1668.24Z"/><path fill="#81bc8c" d="M2312.6,1668.24a406.12,406.12,0,0,0,192.86-48.42c-24.6-38.41-90.39-119.44-205.4-114.14-99.73,4.6-154.93,77.78-177,115.83A406.11,406.11,0,0,0,2312.6,1668.24Z"/><path fill="#81bc8c" d="M2270,1075.29h85.22a36.51,36.51,0,0,1,36.51,36.51v15.12a0,0,0,0,1,0,0H2233.48a0,0,0,0,1,0,0V1111.8A36.51,36.51,0,0,1,2270,1075.29Z"/><ellipse cx="2309.81" cy="1525.53" fill="#d0daed" rx="65.11" ry="66.61" transform="matrix(.97 -.26 .26 .97 -313.5 641.95)"/><path fill="#34509c" d="M2235.64,960.52a1.38,1.38,0,0,1-1.13-.59l-22.43-31.82a1.38,1.38,0,1,1,2.26-1.59l22.43,31.82a1.39,1.39,0,0,1-1.13,2.18Zm133.05-1.16,24.12-30.56a1.38,1.38,0,0,0-2.17-1.71l-24.12,30.56a1.38,1.38,0,0,0,.23,1.94,1.35,1.35,0,0,0,.85.29A1.39,1.39,0,0,0,2368.69,959.36Zm-63.18-24.65a1.38,1.38,0,0,0,1.38-1.38l0-39a1.38,1.38,0,0,0-1.38-1.38h0a1.38,1.38,0,0,0-1.38,1.38l0,39a1.38,1.38,0,0,0,1.38,1.38Z"/><rect width="370.37" height="212.01" x="2124.63" y="1144.51" fill="#a5bfdf" rx="74.96"/><rect width="340.96" height="129.43" x="2139.33" y="1182.52" fill="#d0daed" rx="45.76"/><circle cx="2204.31" cy="1242.03" r="18.22" fill="#34509c"/><circle cx="2415.27" cy="1242.03" r="18.22" fill="#34509c"/><path fill="#34509c" d="M2286.07,1260.44h47.49a7.38,7.38,0,0,1,7.08,9.55c-3.45,10.92-11.78,27.29-30.71,27.29s-27.37-16.32-30.92-27.23A7.38,7.38,0,0,1,2286.07,1260.44Z"/><polygon fill="#a5bfdf" points="2004.11 2295.03 1982.48 2428.36 2220.07 2321.28 2004.11 2295.03"/><rect width="964.21" height="482.19" x="1755.33" y="1863.55" fill="#a5bfdf" rx="241.1"/><rect width="473.52" height="29.8" x="1909.77" y="2142.58" fill="#d0daed" rx="10.53"/><rect width="219.56" height="29.8" x="2330.46" y="2036.93" fill="#d0daed" rx="10.53"/><rect width="354.94" height="29.8" x="1919.29" y="2036.93" fill="#d0daed" rx="10.53"/><polygon fill="#1a124c" points="2047.66 1090.62 2060.47 1169.59 1956.52 1122.87 2047.66 1090.62"/><path fill="#34509c" d="M1717,1130.1h243c66.87,0,121.57-54.7,121.57-121.57h0c0-66.86-54.7-121.57-121.57-121.57H1717c-66.86,0-121.57,54.71-121.57,121.57h0C1595.44,1075.4,1650.15,1130.1,1717,1130.1Z"/><path fill="#1a124c" d="M2050,927a120.42,120.42,0,0,1,10.23,48.61h0c0,66.86-54.71,121.57-121.57,121.57H1695.62a121.36,121.36,0,0,1-89.95-40c18.85,42.84,61.74,73,111.34,73h243c66.87,0,121.57-54.7,121.57-121.57h0A121.09,121.09,0,0,0,2050,927Z"/><circle cx="1927.64" cy="998.76" r="23.2" fill="#fff"/><circle cx="1815.34" cy="998.76" r="23.2" fill="#fff"/><circle cx="1703.05" cy="998.76" r="23.2" fill="#fff"/><path fill="#d0daed" d="M4301.24,1391.47a27.94,27.94,0,0,0-27.58-28h0c-13.41-.05-20.18-16.56-10.72-26.18h0a28.3,28.3,0,0,0-.12-39.54l-5.55-5.64a27.16,27.16,0,0,0-38.87-.12h0c-9.46,9.61-25.69,2.73-25.73-10.91h0c-.05-15.45-12.4-28-27.58-28.06l-7.81,0a27.53,27.53,0,0,0-27.41,27.87h0c.05,13.64-16.15,20.42-25.66,10.74h0a27.16,27.16,0,0,0-38.87-.12l-5.51,5.6a28.31,28.31,0,0,0,.12,39.55c9.51,9.67,2.85,26.15-10.57,26.1h0a27.52,27.52,0,0,0-27.4,27.88l0,7.94c0,15.45,12.39,28,27.57,28.06h0c13.41,0,20.18,16.55,10.73,26.17h0a28.3,28.3,0,0,0,.12,39.55l5.54,5.64a27.16,27.16,0,0,0,38.87.12c9.46-9.62,25.69-2.73,25.74,10.91a27.93,27.93,0,0,0,27.57,28l7.81,0a27.52,27.52,0,0,0,27.41-27.87h0c0-13.65,16.15-20.43,25.66-10.75h0a27.16,27.16,0,0,0,38.88.12l5.51-5.6a28.31,28.31,0,0,0-.12-39.54h0c-9.52-9.68-2.85-26.15,10.56-26.11h0a27.51,27.51,0,0,0,27.4-27.87Zm-139.62,92.17a91.44,91.44,0,1,1,91.44-91.44A91.44,91.44,0,0,1,4161.62,1483.64Z"/><path fill="#518e7b" d="M1149.93,2483l513.41,3s241.09-152,312.64-71.8,1.19,229.68-182.92,233.38H1188.35Z"/><path d="M1272.59,2500.36l226,67.55,62.64,16.15c-31.55-8.94-225.84-81.87-244.33-103.5l-61.81,3.05Z" style="mix-blend-mode:multiply" fill="#518e7b" opacity=".5"/><path fill="#518e7b" d="M1439.81,2700.08l116.75.84,4.62-116.86.37-9.29s-166.14-36.51-225.52-64.14c-51.74-24.08-216.54-79.93-264.43-7.9a85.15,85.15,0,0,0-7.27,13.36C1032.1,2590.51,1107.35,2712.15,1439.81,2700.08Z"/><path fill="#f19a6d" d="M1561.18,2584.06l124.11,9.46s22-27.63,46.9-15.79,20,24.67,48.89,36.51,119.21,75.19,84.89,74.56c-23.83-.44-110.83-8.45-308.91-.56Z"/><path fill="#1a124c" d="M1682.23,2586.94l38.69,99.93s85.1,5.8,112.82,7.73,53.51,11.61,54.8-3.86-86.39-81.88-86.39-81.88l-38.68-8.38,20.63-5.16-36.75-44.48Z"/><polygon fill="#1a124c" points="1784.1 2595.32 1747.35 2550.84 1682.23 2586.94 1688.4 2602.86 1763.46 2600.48 1784.1 2595.32"/><polygon fill="#ef7c59" points="1561.18 2584.06 1577.56 2687.57 1557.06 2688.24 1561.18 2584.06"/><polygon fill="#ef7c59" points="1592.17 2586.42 1658.06 2552.89 1669.55 2592.32 1592.17 2586.42"/><path d="M1669.55,2592.32l-13.45-46.15,211.63-110.29s-189.1,118.73-191.86,129.08S1669.55,2592.32,1669.55,2592.32Z" style="mix-blend-mode:multiply" fill="#518e7b" opacity=".5"/><path fill="#38261f" d="M1631.06,2054s-335.77-1.52-452-2.81c3.13-50.65,27.29-98.5,56.17-130.93,47-52.73,61.31-64.36,51.18-131.25-3.62-23.83-5.46-68.29,2-91.21,10.42-31.89,55.78-62.47,96.77-78.56,54.23-21.28,120.92,32.25,120.92,32.25s44.77-16.06,54.41,45.28-24.12,58.78-20.26,96.28,38,74.6,61.31,101.35C1695.45,2002.28,1631.06,2054,1631.06,2054Z"/><path fill="#f1a953" d="M1380.48,2260l-132,221.15s23.11-.42,56.43,3.11c34.62,3.67,80.26,11.61,122.46,28.7,82.83,33.55,195.56,30,266.4-41l-107.33-237.58s12.82-276.08-19.66-281.2c0,0-34.82-4.82-41.69-6.13l-16.41-33.15s-9.47-9.18-68.09-9.18-71.66,8.78-71.66,8.78l-14,28.18c-8.14.92-64,13.91-78,14.92C1222.18,1960.5,1380.48,2260,1380.48,2260Z"/><path d="M1613.56,2294.31l-27.09-60s.33-7.18.75-19.23c-8.23.33-34.39,1.77-106.15,8-93.18,8.15-149.08-88.52-149.08-88.52s-1.65,6.54-4.56,17.86c27.19,58.56,53,107.48,53,107.48l-132,221.15s23.11-.42,56.43,3.11c14.1,1.5,30,3.7,46.78,6.94,58.24-32.84,119.22-90.33,150.31-118.94A528.75,528.75,0,0,1,1613.56,2294.31Z" style="mix-blend-mode:multiply" fill="#f1a953" opacity=".5"/><path d="M1369,1913.46s18.52,38.61,62.83,46.44h38s45.37-26.65,39-46c0,0-9.47-9.19-68.1-9.19S1369,1913.46,1369,1913.46Z" style="mix-blend-mode:multiply" fill="#f1a953" opacity=".5"/><path d="M1482.74,1996.34s41,1.64,63.7-45.71c-7-1.08-14.45-2.31-21.31-3.62C1520.14,1982.53,1482.74,1996.34,1482.74,1996.34Z" style="mix-blend-mode:multiply" fill="#f1a953" opacity=".5"/><path d="M1327.87,1944.57a133.51,133.51,0,0,1,15.62,19.62c40,60.19,92.33,38.57,92.33,38.57-69.86-7.89-80.81-61.12-80.81-61.12C1346.87,1942.56,1337.58,1943.58,1327.87,1944.57Z" style="mix-blend-mode:multiply" fill="#f1a953" opacity=".5"/><path fill="#f19a6d" d="M1391.12,1844l-6.77,90.65s17.33,24.87,40.68,29.39c25.87,5,27.13,1.51,27.13,1.51l9.82,38.67,4.76-42.49s22.34-7.49,31.38-24.82l-15.67-82.61Z"/><path fill="#f19a6d" d="M1388.32,1645.94c60-16.57,101.15,15.37,116.35,70.44,0,0,5.61,38.69,6.27,41.59.08.38,29.14,60-17.78,120.56-2.65,3.41-6.91,4.83-11.23,6-89.92,23.85-102.83-65.81-102.83-65.81-1.94-4.33-44.2-45.14-45.5-49.83C1318.41,1713.8,1328.27,1662.51,1388.32,1645.94Z"/><path fill="#38261f" d="M1463.31,1674.82s30.35,21.62,40.07,32.77c9.45,10.86-5-27.59-21.69-42.84S1449.6,1642.57,1444,1645,1463.31,1674.82,1463.31,1674.82Z"/><path fill="#38261f" d="M1472.44,1831.23a33.5,33.5,0,0,0,11.66-3.06l-1.53-2.92c-.78.4-19.2,9.67-43.28-7.35l-1.91,2.7C1451.53,1830.6,1464,1832,1472.44,1831.23Z"/><path fill="#38261f" d="M1445.1,1735.91c-4.66-3.85-24.59,7.6-25.39,8.2-6.08,4.58-3.27,8.73-2.15,10.09.65.79,2.92-.8,8.76-3,12.44-4.7,18.16-3.52,20.09-7.76C1447.55,1740.92,1447,1737.44,1445.1,1735.91Z"/><path fill="#38261f" d="M1481.47,1731.69c2.36-4.38,20-1.25,20.76-1,6.06,1.61,6.35,5.09,5.91,6.47-.25.8-2.48.29-7.61.42-11,.27-14.94,2.93-17.73.29C1481.16,1736.28,1480.53,1733.44,1481.47,1731.69Z"/><path fill="#38261f" d="M1480.63,1801.69c.32-.15,7.89-3.77,8.64-10.84.57-5.42-3-11.11-10.7-16.93l-2,2.63c6.59,5,9.84,9.81,9.41,13.94-.54,5.22-6.7,8.19-6.76,8.22Z"/><path fill="#f19a6d" d="M1333.22,1819.59c5.68,17.7,23.25,27.89,39.23,22.76s24.35-23.63,18.67-41.33-23.25-27.89-39.23-22.76S1327.54,1801.9,1333.22,1819.59Z"/><path fill="#38261f" d="M1359.85,1820.54c1.7-4.73,10.28-7,13.45-7.55l2.08-.33-.82-1.94c-3.22-7.58-7.58-12.3-13-14a16.75,16.75,0,0,0-12.93,1.46l1.72,2.82a13.54,13.54,0,0,1,10.24-1.12c4,1.29,7.39,4.76,10.08,10.31-3.87.93-11.88,3.5-14,9.27Z"/><path fill="#ef7c59" d="M1378.48,1818.86a170.08,170.08,0,0,1-2.82-29.54,38.17,38.17,0,0,1,21,72C1381.8,1841.74,1378.48,1818.86,1378.48,1818.86Z"/><path fill="#ef7c59" d="M1515.3,1770.2a119.34,119.34,0,0,1,.88,62.25,38.13,38.13,0,0,1-.88-62.25Z"/><path fill="#38261f" d="M1433.62,1772.17c1.16,3.93,4,6.57,6.25,5.89s3.2-4.42,2-8.35-4-6.56-6.26-5.88S1432.45,1768.24,1433.62,1772.17Z"/><path fill="#38261f" d="M1494.19,1762.08c1.07,3.58,3.62,6,5.71,5.36s2.91-4,1.85-7.6-3.61-6-5.7-5.37S1493.13,1758.5,1494.19,1762.08Z"/><path fill="#38261f" d="M1446.47,1632.39c1.7,4.38,5.53,19.37,6.58,23.52a27.83,27.83,0,0,1,1.29,3.9c.73,2.78,1.36,5.61,1.84,8.45a101.66,101.66,0,0,1,1.31,16.8,91.69,91.69,0,0,1-1.59,17.18c-1,5.32-2.26,11.19-4.74,16-.29.55-1.25.38-1.13-.31.46-2.67,1.3-5.31,1.85-8s1.06-5.39,1.46-8.1c.46-3.18.76-6.37,1-9.57-13.78,67.55-126.42,114.37-126.42,114.37s4.39-34.79-7.6-43.08C1307.71,1754.93,1285.11,1616.15,1446.47,1632.39Z"/><path fill="#442f29" d="M1428.85,1669.49s5,49.75-59.66,77.72c0,0,30.9-37.84,27-63.88,0,0-26,41.38-90.73,62,0,0,102.75-76.53,101.45-115.44,0,0,7.42,36.75,2.54,63.44C1409.45,1693.29,1428.53,1679.78,1428.85,1669.49Z"/><path fill="#f19a6d" d="M1695.7,2285.57l154.69-79.85,14.17-11.16c7.39-19.95,10.57-34.24,24-47.24s44.7-50.3,54-43.56-29.82,42.36-20.73,42.38,78.4-52.95,86.63-45.46S1938.69,2160,1951.4,2155s74.44-44.81,76.8-35.5-11.73,20.34-11.73,20.34c20.09-4.66,12.52,14.14-8.3,28.89s-54.08,30.18-47.24,32.62,55.26-22.75,56.9-12.45-37.81,20.68-82,42.47a409.34,409.34,0,0,0-48.55,28.47c-48.25,41.14-107.63,98.12-180.14,79.59C1670.93,2330.22,1695.7,2285.57,1695.7,2285.57Z"/><path fill="#f1a953" d="M1601.73,2190.38c30.61,124.84,74.66,245.69,127.84,226.58,65.19-23.39,70-89.63,64.16-137a273.24,273.24,0,0,0-11.46-51.59s-52.17,5.48-58.52,1.63c-30.13-18.32-69.65-229.87-87-251.22s-73-26.53-73-26.53S1571.44,2067,1601.73,2190.38Z"/><path d="M1601.73,2190.38c30.61,124.84,74.66,245.69,127.84,226.58,65.19-23.39,70-89.63,64.16-137-22,28.2-99.38,28-114.48,12.68-21.61-21.85-100.59-224.31-100.59-224.31S1591.71,2154.23,1601.73,2190.38Z" style="mix-blend-mode:multiply" fill="#f1a953" opacity=".5"/><path fill="#f1a953" d="M1271.07,1954.85c-30.77-5.13-102.56,341-92.31,371.8s66.67,89.75,112.83,53.85S1340.31,2201,1330.05,2160,1301.84,1960,1271.07,1954.85Z"/><path d="M1298.82,2062.54s22.88,86.44,25.42,160.17-25.42,129.65-25.42,129.65l-43.22-71.18S1291.19,2215.08,1298.82,2062.54Z" style="mix-blend-mode:multiply" fill="#f1a953" opacity=".5"/><path fill="#ef7c59" d="M1204.53,2127.27c-2.29-6.63-4-61.19-4.5-68.33s-9.26-23.66-8.28-31.55,2-18.21,2-18.21c-16,1.66-18,12.33-18.43,19.39s-20.15,48.47-20.15,48.47l14.88,24.61Z"/><polygon fill="#1a124c" points="1297.79 2102.87 1219.49 2154.64 1100.7 2009.02 1103.02 2001.24 1177.92 1955.93 1296.14 2092.95 1297.79 2102.87"/><polygon fill="#a5bfdf" points="1296.18 2093.04 1217.88 2144.81 1102.79 2001.22 1181.1 1949.46 1296.18 2093.04"/><polygon fill="#f2f2f2" points="1180.22 1958.13 1112.15 2003.13 1204.46 2118.3 1272.28 2072.98 1180.22 1958.13"/><polygon fill="#a5bfdf" points="1286.82 2091.13 1272.28 2072.98 1204.46 2118.3 1218.75 2136.14 1286.82 2091.13"/><ellipse cx="1246.4" cy="2103.7" fill="#e0e7f3" rx="6.96" ry="8.36" transform="rotate(-64.57 1246.466 2103.733)"/><path fill="#f19a6d" d="M1133,2048c-3-12-3.3-27.33,5.25-34.53s36.07-22.66,41.26-18.21-5.7,17-15.77,21-13.85,5.61-13.44,8.09,1.79,10.57,2.58,10c17.15-12.85,37.23-10.82,29.61.46,10.24,4.25-2.24,20-2.24,20,5.61,2.94,3.79,9.87-3.33,15.21s-4.25,11.13-4.25,11.13c25.28,2.51,31.89,46.22,31.89,46.22l-39.81,7.79C1159.2,2112.19,1118.38,2065.29,1133,2048Z"/><path fill="#ef7c59" d="M1136.31,2048.59a.47.47,0,0,1-.5,0,.38.38,0,0,1-.13-.55c0-.07,4.7-6.72,14.84-12.54a.45.45,0,0,1,.59.13.38.38,0,0,1-.14.55c-10,5.72-14.52,12.21-14.56,12.28A.47.47,0,0,1,1136.31,2048.59Z"/><path fill="#ef7c59" d="M1141.71,2064.81a.45.45,0,0,1-.5,0,.37.37,0,0,1-.13-.54c2-2.92,19.12-20.29,38.17-28.62a.43.43,0,0,1,.57.19.39.39,0,0,1-.21.53c-18.89,8.26-35.8,25.44-37.81,28.32A.28.28,0,0,1,1141.71,2064.81Z"/><path fill="#ef7c59" d="M1153.56,2080.17a.5.5,0,0,1-.43.06.38.38,0,0,1-.24-.51c1.69-4,5.65-13.49,24.45-24.15a.44.44,0,0,1,.59.13.39.39,0,0,1-.15.55c-18.54,10.51-22.43,19.79-24.09,23.75A.55.55,0,0,1,1153.56,2080.17Z"/><path fill="#f19a6d" d="M1165.41,2137s16.46,146.73,41.88,207.75c43.22,43.21,86.44-17.8,86.44-17.8l-88.86-197.68Z"/><path d="M1439.81,2700.08l116.75.84,4.62-116.86s-36.86,84.77-80.58,85.68c-31,.65-363-.1-416.07-153.08-.07-.19-.14-.38-.2-.57C1032.1,2590.51,1107.35,2712.15,1439.81,2700.08Z" style="mix-blend-mode:multiply" fill="#518e7b" opacity=".5"/><polygon fill="#a5bfdf" points="3202.84 631.61 3305.83 691.12 3305.01 557.01 3202.84 631.61"/><rect width="583.84" height="291.97" x="2783.09" y="360" fill="#d0daed" rx="145.99"/><rect width="286.72" height="18.04" x="2876.61" y="460.21" fill="#fff" rx="6.38"/><rect width="79.86" height="18.04" x="3193.55" y="460.21" fill="#fff" rx="6.38"/><rect width="214.92" height="18.04" x="2882.37" y="520.65" fill="#fff" rx="6.38"/><path fill="#a5bfdf" d="M3987.89,2569.85H3714.26a26.08,26.08,0,0,1-26-26V2522.3a26.08,26.08,0,0,1,26-26h273.63a26.09,26.09,0,0,1,26,26v21.54A26.09,26.09,0,0,1,3987.89,2569.85Z"/><path fill="#a5bfdf" d="M667.6,1251.86H415.52a36.89,36.89,0,0,1-36.78-36.78V1204.3a26.09,26.09,0,0,1,26-26H667.6a36.9,36.9,0,0,1,36.79,36.79h0A36.89,36.89,0,0,1,667.6,1251.86Z"/><path fill="#fff" d="M1185.26,1068.73c-5.87-32.16,1.86-59.66,5.88-70.88.66-1.6,1.28-3.21,1.88-4.83.16-.38.26-.6.26-.6h0a133.5,133.5,0,1,0-178,77.27l0,0,.73.26c1.65.69,3.3,1.35,5,2,11.15,4.8,36.44,17.92,55.88,44.08Z"/><path fill="#a5bfdf" d="M1190.11,893.66a133.51,133.51,0,0,0-154.33-76.24,131.57,131.57,0,0,1-3.67,260.09,140.11,140.11,0,0,1,44.64,38.54l108.51-47.32c-5.87-32.16,1.86-59.66,5.88-70.88.66-1.6,1.28-3.21,1.88-4.83.16-.38.26-.6.26-.6h0A133,133,0,0,0,1190.11,893.66Z"/><path fill="#34509c" d="M1109.83,1104.29a3.23,3.23,0,0,1-4.25-1.67l-48.44-111.09L981.66,940.6a3.23,3.23,0,0,1,3.62-5.36l76.26,51.45a3.18,3.18,0,0,1,1.15,1.39L1111.51,1100A3.24,3.24,0,0,1,1109.83,1104.29Z"/><path fill="#34509c" d="M1155.06,1084.57a3.24,3.24,0,0,1-4.26-1.67L1102,971a3.18,3.18,0,0,1-.23-1.8L1116,878.26a3.23,3.23,0,1,1,6.39,1l-14,90,48.44,111.09A3.23,3.23,0,0,1,1155.06,1084.57Z"/><path fill="#34509c" d="M1113.73,916.09A3.2,3.2,0,0,1,1111,916l-21.81-11.28-6.57,23.65a3.35,3.35,0,0,1-4.61,2l-21.8-11.28-6.57,23.65a3.23,3.23,0,0,1-1.82,2.1h0a3.22,3.22,0,0,1-2.78-.09l-21.8-11.28-6.56,23.65a3.24,3.24,0,0,1-6.24-1.74l7.63-27.48a3.35,3.35,0,0,1,4.61-2l21.79,11.28,6.57-23.65a3.36,3.36,0,0,1,4.61-2l21.8,11.29,6.57-23.66a3.35,3.35,0,0,1,4.6-2l25.35,13.11a3.24,3.24,0,0,1-.19,5.84Z"/><path fill="#00395b" d="M1196.05,1134.75l-78,34,18,23.93a17.5,17.5,0,0,0,21,5.54l34.18-14.91a17.5,17.5,0,0,0,10.23-19.15Z"/><polygon fill="#1a124c" points="1197.19 1141.07 1196.05 1134.75 1118 1168.78 1121.86 1173.92 1197.19 1141.07"/><path fill="#1a124c" d="M1183.29,1140.31l3.12,17.27a17.49,17.49,0,0,1-10.23,19.15L1142,1191.64a17.51,17.51,0,0,1-5.74,1.41,17.49,17.49,0,0,0,20.69,5.2l34.18-14.91a17.5,17.5,0,0,0,10.23-19.15l-5.31-29.44Z"/><path fill="#00395b" d="M1179.1,1053.72l-108.94,47.5a13.6,13.6,0,0,0-7,17.84h0a13.59,13.59,0,0,0,17.84,7l108.94-47.5a13.58,13.58,0,0,0,7-17.83h0A13.57,13.57,0,0,0,1179.1,1053.72Z"/><path fill="#1a124c" d="M1184.8,1052.64a13.13,13.13,0,0,1,2.29,3.48,13.59,13.59,0,0,1-7,17.84l-108.94,47.5a13.26,13.26,0,0,1-5.7,1.08,13.53,13.53,0,0,0,15.54,3.52l108.94-47.5a13.52,13.52,0,0,0-5.13-25.92Z"/><path fill="#00395b" d="M1189.9,1078.51,1081,1126a13.58,13.58,0,0,0-7,17.83h0a13.59,13.59,0,0,0,17.84,7l108.94-47.5a13.59,13.59,0,0,0,7-17.84h0A13.59,13.59,0,0,0,1189.9,1078.51Z"/><path fill="#1a124c" d="M1195.61,1077.42a13.43,13.43,0,0,1,2.29,3.49,13.59,13.59,0,0,1-7,17.84L1082,1146.25a13.26,13.26,0,0,1-5.7,1.08,13.55,13.55,0,0,0,15.54,3.52l108.94-47.5a13.53,13.53,0,0,0-5.13-25.93Z"/><path fill="#00395b" d="M1200.71,1103.29l-108.93,47.5a13.59,13.59,0,0,0-7,17.84h0a13.6,13.6,0,0,0,17.84,7l108.93-47.5a13.59,13.59,0,0,0,7-17.84h0A13.61,13.61,0,0,0,1200.71,1103.29Z"/><path fill="#1a124c" d="M1206.41,1102.21a13.36,13.36,0,0,1-4.71,21.33L1092.77,1171a13.47,13.47,0,0,1-5.7,1.08,13.55,13.55,0,0,0,15.54,3.52l108.93-47.5a13.52,13.52,0,0,0-5.13-25.93Z"/><path fill="#34509c" d="M996.65,799.8h0a7.5,7.5,0,0,1-10.07-3.21l-21.9-42.4a7.5,7.5,0,0,1,3.21-10.07h0A7.5,7.5,0,0,1,978,747.33l21.9,42.4A7.49,7.49,0,0,1,996.65,799.8Z"/><path fill="#34509c" d="M932.59,857.9h0a7.49,7.49,0,0,1-10.32,2.26L882.1,834.39a7.49,7.49,0,0,1-2.26-10.32h0a7.5,7.5,0,0,1,10.33-2.26l40.17,25.77A7.5,7.5,0,0,1,932.59,857.9Z"/><path fill="#34509c" d="M906.16,940.25h0a7.5,7.5,0,0,1-7.81,7.12l-47.67-2.23a7.5,7.5,0,0,1-7.12-7.82h0a7.5,7.5,0,0,1,7.82-7.11l47.67,2.23A7.49,7.49,0,0,1,906.16,940.25Z"/><path fill="#34509c" d="M1163.53,807.94h0a7.49,7.49,0,0,1-2.25-10.32L1187,757.45a7.5,7.5,0,0,1,10.33-2.25h0a7.49,7.49,0,0,1,2.25,10.32l-25.77,40.17A7.48,7.48,0,0,1,1163.53,807.94Z"/><path fill="#34509c" d="M1081.18,781.52h0a7.5,7.5,0,0,1-7.11-7.82L1076.3,726a7.49,7.49,0,0,1,7.81-7.11h0a7.49,7.49,0,0,1,7.12,7.81L1089,774.4A7.5,7.5,0,0,1,1081.18,781.52Z"/><path fill="#fff" d="M1604.07,1522.09H847.48a67.87,67.87,0,0,1-67.87-67.87h0a67.87,67.87,0,0,1,67.87-67.88h756.59a67.88,67.88,0,0,1,67.87,67.88h0A67.87,67.87,0,0,1,1604.07,1522.09Z"/><path fill="#f1a953" d="M1604.07,1522.09h-68.23a67.88,67.88,0,0,1-67.88-67.87h0a67.88,67.88,0,0,1,67.88-67.88h68.23a67.88,67.88,0,0,1,67.87,67.88h0A67.87,67.87,0,0,1,1604.07,1522.09Z"/><polygon fill="#34509c" points="1549.58 1454.22 1629.1 1454.22 1544.16 1413.09 1549.58 1454.22"/><polygon fill="#34509c" points="1549.58 1454.22 1629.1 1454.22 1544.16 1495.35 1549.58 1454.22"/><circle cx="1080.22" cy="1454.22" r="10.28" fill="#c17552"/><circle cx="1132.16" cy="1454.22" r="10.28" fill="#c17552"/><circle cx="1184.11" cy="1454.22" r="10.28" fill="#c17552"/><circle cx="1236.06" cy="1454.22" r="10.28" fill="#c17552"/><circle cx="1288" cy="1454.22" r="10.28" fill="#c17552"/><path d="M3294.22,1521.14V1569a31.7,31.7,0,0,1-22.51,30.34l-48.84,14.79a3.7,3.7,0,0,0,0,7.09l48.84,14.78a31.7,31.7,0,0,1,22.51,30.34v47.84a27.94,27.94,0,0,0,28,27.94h254.61a27.94,27.94,0,0,0,27.94-27.94v-193a27.94,27.94,0,0,0-27.94-27.94H3322.17A27.94,27.94,0,0,0,3294.22,1521.14Z" style="mix-blend-mode:multiply" fill="#38261f" opacity=".2"/><path fill="#a5bfdf" d="M3281,1507.83v47.85a31.69,31.69,0,0,1-22.51,30.33l-48.85,14.79a3.71,3.71,0,0,0,0,7.09l48.85,14.78A31.7,31.7,0,0,1,3281,1653v47.84a27.94,27.94,0,0,0,27.94,27.94h254.62a27.94,27.94,0,0,0,27.94-27.94v-193a27.94,27.94,0,0,0-27.94-27.94H3309A27.94,27.94,0,0,0,3281,1507.83Z"/><path fill="#fff" d="M3419.71,1643.51h-16.34v-33.38h-30.63v33.38h-16.4v-77.34h16.4v30.31h30.63v-30.31h16.34Z"/><path fill="#fff" d="M3448.11,1569.08q0-7.87,8.78-7.88t8.78,7.88a7.69,7.69,0,0,1-2.19,5.85c-1.47,1.39-3.66,2.09-6.59,2.09Q3448.12,1577,3448.11,1569.08Zm16.82,74.43H3448.8v-59.14h16.13Z"/><path fill="#fff" d="M3490.42,1636c0-3,.79-5.2,2.38-6.72s3.89-2.28,6.93-2.28a9.37,9.37,0,0,1,6.79,2.33q2.42,2.33,2.41,6.67a8.84,8.84,0,0,1-2.43,6.58,9.19,9.19,0,0,1-6.77,2.41,9.52,9.52,0,0,1-6.88-2.35A8.83,8.83,0,0,1,3490.42,1636Zm15.81-18.09h-12.9l-2.7-51.69h18.3Z"/><path d="M4125.71,2250.16v-47.44a31.43,31.43,0,0,1,22.32-30.07l46.52-14.08a4.28,4.28,0,0,0,0-8.18L4148,2136.3a31.42,31.42,0,0,1-22.32-30.07V2058.8a27.7,27.7,0,0,0-27.7-27.7H3845.59a27.7,27.7,0,0,0-27.7,27.7v191.36a27.7,27.7,0,0,0,27.7,27.7H4098A27.7,27.7,0,0,0,4125.71,2250.16Z" style="mix-blend-mode:multiply" fill="#38261f" opacity=".2"/><path fill="#34509c" d="M4142.63,2229.08v-47.44a31.43,31.43,0,0,1,22.32-30.07l46.52-14.08a4.27,4.27,0,0,0,0-8.18L4165,2115.22a31.42,31.42,0,0,1-22.32-30.07v-47.43a27.71,27.71,0,0,0-27.7-27.71H3862.51a27.71,27.71,0,0,0-27.7,27.71v191.36a27.7,27.7,0,0,0,27.7,27.7h252.42A27.7,27.7,0,0,0,4142.63,2229.08Z"/><path fill="#fff" d="M3982.29,2172.23h-16.21v-33.09h-30.36v33.09h-16.26v-76.67h16.26v30.05h30.36v-30.05h16.21Z"/><path fill="#fff" d="M4010.44,2098.44q0-7.82,8.7-7.81t8.71,7.81a7.62,7.62,0,0,1-2.18,5.8c-1.45,1.38-3.62,2.07-6.53,2.07Q4010.44,2106.31,4010.44,2098.44Zm16.68,73.79h-16V2113.6h16Z"/><path fill="#fff" d="M4052.38,2164.73q0-4.41,2.36-6.66t6.87-2.25a9.33,9.33,0,0,1,6.74,2.3,10.19,10.19,0,0,1,0,13.14,9.15,9.15,0,0,1-6.72,2.39,9.37,9.37,0,0,1-6.81-2.34A8.72,8.72,0,0,1,4052.38,2164.73Zm15.68-17.93h-12.79l-2.68-51.24h18.15Z"/><circle cx="3924.83" cy="1900.91" r="71.46" fill="#f1a953"/><ellipse cx="3903.17" cy="1882.38" fill="#0a3464" rx="9.35" ry="16.19"/><path fill="#38261f" d="M3933.56,1890.75a3.43,3.43,0,0,1-2.18-.76,3.49,3.49,0,0,1-.57-4.89,24.37,24.37,0,0,1,8.19-6.24c4.79-2.3,12.6-4.17,22.57,0a3.5,3.5,0,1,1-2.7,6.45c-14.21-5.94-22.24,3.72-22.58,4.13A3.49,3.49,0,0,1,3933.56,1890.75Z"/><path fill="#38261f" d="M3924.84,1942.59a54.09,54.09,0,0,1-52-38.33,3.5,3.5,0,1,1,6.69-2.06,47.36,47.36,0,0,0,90.51,0,3.5,3.5,0,1,1,6.69,2.06A54.08,54.08,0,0,1,3924.84,1942.59Z"/><path fill="#34509c" d="M4188.23,1776.2H3685.32a16,16,0,0,1-16-16V1610a16,16,0,0,1,16-16h450a16,16,0,0,1,16,16v122a14.87,14.87,0,0,0,5.32,11.4l33.36,27.94A2.76,2.76,0,0,1,4188.23,1776.2Z"/><path fill="#d0daed" d="M4093.46,1637.43H3728.64a3,3,0,0,1,0-6h364.82a3,3,0,0,1,0,6Z"/><path fill="#d0daed" d="M4093.46,1671.2H3728.64a3,3,0,0,1,0-6h364.82a3,3,0,0,1,0,6Z"/><path fill="#d0daed" d="M4093.46,1705H3728.64a3,3,0,0,1,0-6h364.82a3,3,0,0,1,0,6Z"/><path fill="#d0daed" d="M3888.27,1738.76H3728.64a3,3,0,0,1,0-6h159.63a3,3,0,0,1,0,6Z"/><path fill="#a5bfdf" d="M3271.52,2127.51h470.86a24.75,24.75,0,0,0,24.75-24.75V1925.65a24.75,24.75,0,0,0-24.75-24.74H3333.17a24.75,24.75,0,0,0-24.75,24.74v157.64a14.87,14.87,0,0,1-5.32,11.4l-33.35,27.94A2.76,2.76,0,0,0,3271.52,2127.51Z"/><path fill="#d0daed" d="M3705.22,1966.54H3367.33a3,3,0,0,1,0-6h337.89a3,3,0,1,1,0,6Z"/><path fill="#d0daed" d="M3705.22,2000.32H3367.33a3,3,0,0,1,0-6h337.89a3,3,0,0,1,0,6Z"/><path fill="#d0daed" d="M3705.22,2034.1H3367.33a3,3,0,0,1,0-6h337.89a3,3,0,0,1,0,6Z"/><path fill="#d0daed" d="M3705.22,2067.87H3557.38a3,3,0,0,1,0-6h147.84a3,3,0,1,1,0,6Z"/><path fill="#f19a6d" d="M3264.77,1447c38.09-33.12,118.1-91.5,118.1-91.5s108.51-101.23,105.12-108.21-45.27,17.91-45.27,17.91c2.59-7.2,40-36.62,37.78-40.78s-50,30.71-52.52,28.87,47.3-37.81,43.41-43.2-53.75,30.58-56.92,29.59,46.21-39.9,38.77-44-74.27,61.77-81.11,61.38,12.12-36.61,9-51.16-46.32,67-46.32,67c-12.37,14-121.9,91.79-121.9,91.79Z"/><path fill="#ef7c59" d="M3379,1253.48,3364.22,1292s4.29-37.78,1.61-40.36Z"/><path fill="#f1a953" d="M3188.09,1330.81s-174-282.32-269.3-176.81c-42.65,47.19,106.26,252,192.77,344.77a74.13,74.13,0,0,0,97.39,9.73l175.58-125.74-70-119.75Z"/><path d="M2918.94,1134.69c26.22-29,141.25,75.69,167.5,113.5,28.88,41.58,54.83,85.13,83,127.19,5.44,8.13,11.25,16,17.11,23.84,5.11,6.83,8.92,14.51,17.38,17.7,14,5.27,21.17-.9,33.58-7.16,16.41-8.28,113.49-66.67,113.49-66.67s18.74,30.59,22.74,39.36l-174.49,125.78a74.13,74.13,0,0,1-97.57-9.59C3015.11,1405.84,2876.31,1181.87,2918.94,1134.69Z" style="mix-blend-mode:multiply" fill="#f1a953" opacity=".5"/><polygon fill="#f19a6d" points="3098.42 2592.48 3086.1 2569.48 3012.68 2571.98 3011.03 2592.48 3045.53 2649 3107.62 2603.78 3098.42 2592.48"/><path fill="#1a124c" d="M3102.85,2591.69s-21.56-.4-46.66,17.58c-14.93,10.7-37.5-11.37-44.42-17.07-1.41-1.16-3.32-.12-3.56,1.94l-8.67,74.64H3218c2.54,0,4.6-2.53,4.6-5.65v-15.71a5.69,5.69,0,0,0-3.14-5.36Z"/><polygon fill="#f19a6d" points="2925.58 2592.48 2913.26 2569.48 2845.88 2559.93 2838.2 2592.48 2872.69 2649 2934.78 2603.78 2925.58 2592.48"/><path fill="#1a124c" d="M2930,2591.69s-21.56-.4-46.65,17.58c-14.94,10.7-37.51-11.37-44.43-17.07-1.41-1.16-3.32-.12-3.56,1.94l-8.67,74.64h218.46c2.54,0,4.6-2.53,4.6-5.65v-15.71a5.69,5.69,0,0,0-3.14-5.36Z"/><path fill="#34509c" d="M3084.78,1689.06s28.1,317.4,30.74,405.09-16,478.65-16,478.65l-116.88,2s-81.64-655.88-195.16-867.38Z"/><path d="M2845.82,1859.81c82.11,275.47,136.82,715,136.82,715l59.55-1c1.47-83.22,24.35-383.67,24.35-483.74-9.33-71.49,1.2-334.39-3.54-396.63l-235,11.5Z" style="mix-blend-mode:multiply" fill="#34509c" opacity=".5"/><path fill="#34509c" d="M3049.71,1689.06s-3.76,346.49-6.91,440.32c-3.46,52.21-100.19,446.82-100.19,446.82l-131.06-3.08,11.12-418.64c6.06-22.58-59.09-343.61-67.09-457.42Z"/><path d="M2756,1702.22c9.5,118,72.67,430,66.7,452.26l-11.12,418.64,76.28,1.79c12.84-99,49.22-383.08,55-467.22,7.07-102.48-24.73-413.45-24.73-413.45Z" style="mix-blend-mode:multiply" fill="#34509c" opacity=".5"/><path fill="#f1a953" d="M2693.13,1271.3c3-74.73,84.23-115,84.23-115l74.4-36.63,95.73,39.59,1.83-29.64s59.76,35.53,86.86,84.2c14.15,25.42,36.75,86.32,38.16,115.58l34.06,382.39-375.67,30S2688.56,1386.32,2693.13,1271.3Z"/><path d="M2834.33,1186.44c-11.85-10.34-35.77-23.82-61.28-27.84-16.82,9.57-77.36,48.38-79.92,112.7,0,.7-.05,1.42-.08,2.14,41.42,117.09,245.69,304.54,245.69,304.54l137-104.41S2905,1248.11,2834.33,1186.44Z" style="mix-blend-mode:multiply" fill="#f1a953" opacity=".5"/><path d="M3090.75,1524.29c-62.6,11.46-208.69,33.17-270.42-.26-64.36-34.87-102-114.5-114-143.77,9.9,149.52,36.24,361.47,36.24,361.47l100.43-7.51,1.88-.54,248.65-128.93Z" style="mix-blend-mode:multiply" fill="#f1a953" opacity=".5"/><path fill="#fff" d="M2991.47,1537.38c.79,6-.18,11.17-2.15,11.43s-4.2-4.42-5-10.46.18-11.17,2.15-11.44S2990.69,1531.33,2991.47,1537.38Z"/><path fill="#f19a6d" d="M2860.15,1122.53s83.51,88.48,115,38.15c0-37.6-5.37-77.59-4.67-72.77,1.84.25-90.39-62.6-90.39-62.6C2878.18,1048.31,2860.15,1122.53,2860.15,1122.53Z"/><path fill="#ef7c59" d="M2970.48,1087.82l0,0C2970.44,1087.43,2970.44,1087.44,2970.48,1087.82Z"/><path fill="#ef7c59" d="M2925.41,1108.15c22.85,17.86,39.14,16.37,48,9.6-1.23-16-2.67-28-2.88-29.93-.79-.87-12.37-9-27-19.08l-54-14.24S2895,1084.37,2925.41,1108.15Z"/><path fill="#ef7c59" d="M2970.5,1087.84v.07S2970.53,1087.88,2970.5,1087.84Z"/><path fill="#1a124c" d="M3151.58,1505.86l62.08-29.18c6.29-3,8.63-11.21,5.23-18.44l-32.29-68.7-35.14-74.77c-3.39-7.23-11.24-10.69-17.53-7.74l-62.08,29.18c-6.29,3-8.64,11.21-5.24,18.44L3134,1498.12C3137.44,1505.35,3145.29,1508.81,3151.58,1505.86Z"/><path fill="#34509c" d="M3146.82,1499.53c-2,0-4.62-1.41-6.09-4.55l-67.43-143.47c-1.63-3.47-.86-7.42,1.69-8.62l62.08-29.17a3.69,3.69,0,0,1,1.62-.36c2,0,4.61,1.41,6.09,4.55l67.43,143.47c1.63,3.47.85,7.42-1.69,8.61l-62.09,29.18a3.65,3.65,0,0,1-1.61.36Z"/><path fill="#f19a6d" d="M3196.88,1386.2c1.75-13.21-12.43-17.59-12.43-17.59-5.88-13.54-12.74-16.24-12.74-16.24s-32.31,42.43-45.16,62.52c-11.21,6.1-18.49,3.87-18.49,3.87l.06.62c-6.79-8.58-15.29-19.3-16.21-20.53-1.58-2.08-7.43-2.9-7.65,7.62s2,29.4,2,29.4l-73.15,22.85,70.86,77.13s69.84-38.79,80.07-45.44,46-49.53,49.73-65.45-4-21.74-4-21.74C3210.42,1388.58,3196.88,1386.2,3196.88,1386.2Z"/><path fill="#1a124c" d="M3143.51,1325.08a9.4,9.4,0,1,1-12.51-4.51A9.41,9.41,0,0,1,3143.51,1325.08Zm-23.37,13.65a9.4,9.4,0,1,0,12.51,4.51A9.4,9.4,0,0,0,3120.14,1338.73Zm20.08.14a9.4,9.4,0,1,0,12.52,4.51A9.41,9.41,0,0,0,3140.22,1338.87Z"/><path fill="#f1a953" d="M2939.23,1477.57,2829.7,1231.33s-45.47-71.54-87.29-46c-70.76,43.24-82.47,212.93,62.51,426.39,32.9,48.44,57.44,84.84,166.11,14.9l141.44-80.81-54.82-113.56Z"/><path fill="#38261f" d="M2994,863.77c-1.71-6.81-11.08-15.76-26.84-16.61s-29.4,12.35-29.4,12.35-5.54-5.11-11.93-5.54-10.65,10.23-10.65,10.23-10.22-14.06-32.8-8.52-48,40.11-48,40.11c-42,9.23,6.68,160.6,51.56,148.8l116.16-97.7c6.85,0,3-16.23,3-16.23,12.78-5.11,10.23-29.82,10.23-29.82s8.78-6.39,7.24-20C3019.14,850.57,2994,863.77,2994,863.77Z"/><path fill="#f19a6d" d="M3001,944.72c-.63-2.58-1.23-5.16-2-7.71-15.16-50.28-45.84-65.21-94.72-57.15-59.73,9.85-66.45,78.73-53,122.15,1.4,4.53,25.78,6.2,27.25,10.57,0,0-6.57,72.29,59.15,85.44,7.79,1.55,35.64,4.89,41.4-1.33,50.53-54.6,24.16-118,24.16-118C3006.35,971.8,3004,956.89,3001,944.72Z"/><path fill="#ef7c59" d="M3003.49,977.81c-10.12,9.33-16.61,23.64-16.61,39.7s6.44,30.27,16.5,39.61c15-41.66-.23-78.44-.23-78.44C3003.27,978.41,3003.38,978.1,3003.49,977.81Z"/><path fill="#ef7c59" d="M2881.73,992.86c-9,0-17,5.11-22.39,13.14,7.7,2.06,18.15,3.76,19.1,6.58,0,0-2.64,29.32,12.41,54,11.86-4.92,20.45-19.14,20.45-35.94C2911.3,1009.78,2898.06,992.86,2881.73,992.86Z"/><path fill="#38261f" d="M2923.65,1031l-1.86,2.16c13.57,11.67,26.14,13.77,34.4,13.44a31,31,0,0,0,9.91-1.85l-1.08-2.63C2964.83,1042.22,2945.46,1049.78,2923.65,1031Z"/><path fill="#38261f" d="M2907.1,962c-6.3,3.86-4,8.14-3,9.56.56.82,2.91-.51,8.76-2.11,12.47-3.39,17.89-1.74,20.14-5.66,1.33-2.32,1.08-5.74-.57-7.39C2928.27,952.24,2907.93,961.49,2907.1,962Z"/><path fill="#38261f" d="M2992.65,955.56c-.71-.34-16.44-5-18.76-.73-.93,1.7-.48,4.78.94,6.65,2.4,3.18,6.12.95,16,2.23,4.65.61,6.64,1.46,6.9.65C2998.2,963,2998.05,958.12,2992.65,955.56Z"/><path fill="#38261f" d="M2922.55,984.92c-2.06.54-3.05,3.6-2.2,6.83s3.2,5.42,5.27,4.88,3-3.6,2.2-6.83S2924.62,984.38,2922.55,984.92Z"/><path fill="#38261f" d="M2982.2,977.34c-1.88.49-2.72,3.5-1.87,6.73s3.05,5.44,4.93,4.95,2.72-3.51,1.87-6.73S2984.08,976.85,2982.2,977.34Z"/><path fill="#38261f" d="M3005.91,874.53c-27.18-8.19-73-24.82-116.85.91s-55.82,57.28-62.35,67.16c-8.36,12.64,17,62.29,33.72,92.21,5.33,9.55,15.06,7.73,19.12-2.42l-2-4.72,3.8-20.37,2.53-76.2s83.21,4.2,104.32-15.49A55.85,55.85,0,0,1,2999,937S3033.09,882.73,3005.91,874.53Z"/><path fill="#ef7c59" d="M2856.16,986.74c-13.13,4.19-20,19.37-15.37,33.9s19,22.91,32.16,18.72,20-19.37,15.37-33.9S2869.28,982.55,2856.16,986.74Z"/><path fill="#38261f" d="M2864.11,1001.81a13.78,13.78,0,0,0-10.67,1.19l1.48,2.44a11,11,0,0,1,8.35-.9c3.25,1.05,6,3.86,8.17,8.36-3.21.77-9.71,2.89-11.41,7.6l2.68,1c1.38-3.84,8.4-5.73,11-6.13l1.81-.28-.71-1.68C2872.15,1007.14,2868.56,1003.25,2864.11,1001.81Z"/><path fill="#38261f" d="M2880.86,928.21l.86,72.84c26.64-4.79,6-87.49,6-87.49Z"/><path fill="#38261f" d="M2959.5,992.48l-.52,2.8c6.84,1.28,17,4.29,18.28,7a.66.66,0,0,1,0,.72c-3,5.23-10.63,9.84-10.71,9.89l1.46,2.44c.34-.2,8.39-5,11.73-10.92a3.52,3.52,0,0,0,.15-3.33C2977.53,996.08,2962.49,993,2959.5,992.48Z"/></g></svg>